<svg width="23" height="21" viewBox="0 0 23 21" fill="none" xmlns="http://www.w3.org/2000/svg">
<path d="M8.81495 1.29993C9.57814 0.536743 10.8158 0.536743 11.5791 1.29993C12.3424 2.06311 12.3424 3.30073 11.5791 4.06405L7.0973 8.54582L20.6215 8.5466C21.7009 8.5466 22.576 9.42185 22.5759 10.5013C22.5759 11.5807 21.7006 12.4557 20.6212 12.4557L7.09782 12.4549L11.5792 16.9364C12.3425 17.6996 12.3425 18.9372 11.5792 19.7005C11.1975 20.0822 10.6974 20.2731 10.1972 20.2731C9.69698 20.2731 9.19674 20.0822 8.81522 19.7005L0.997032 11.8822C0.6301 11.5154 0.424221 11.0185 0.424221 10.5C0.424221 9.9815 0.63023 9.48439 0.996773 9.11798L8.81495 1.29993Z" fill="#C4C4C4"/>
</svg>
