<svg
              width="16"
              height="16"
              viewBox="0 0 16 16"
              fill="none"
              xmlns="http://www.w3.org/2000/svg"
            >
              <path
                d="M7.9998 0C3.5887 0 0 3.58879 0 8C0 12.4112 3.5887 16 7.9998 16C12.4109 16 16 12.4112 16 8C16 3.58879 12.4117 0 7.9998 0ZM7.9998 14.3057C4.52262 14.3057 1.69412 11.4768 1.69412 7.9999C1.69412 4.52264 4.52303 1.69406 7.9998 1.69406C11.4766 1.69406 14.3059 4.52264 14.3059 7.9999C14.3059 11.4768 11.477 14.3057 7.9998 14.3057ZM7.9998 4.98064C8.80687 4.98064 9.56475 5.29536 10.1347 5.86532C10.4655 6.19619 11.0016 6.19579 11.3325 5.86532C11.6633 5.53445 11.6633 4.99796 11.3325 4.66708C10.4427 3.77648 9.25912 3.28652 7.9998 3.28571C6.74138 3.28571 5.55769 3.77572 4.66752 4.66627C2.83002 6.50382 2.83002 9.49424 4.66752 11.3325C5.58606 12.2511 6.79372 12.7099 8.0002 12.7099C9.20709 12.7099 10.4143 12.2507 11.3329 11.3325C11.6637 11.002 11.6637 10.4655 11.3329 10.1347C11.002 9.80378 10.4659 9.80379 10.1351 10.1347C8.95893 11.3116 7.04308 11.3116 5.86574 10.1347C4.6884 8.95729 4.6884 7.04138 5.86574 5.86401C6.4349 5.29444 7.19353 4.98064 7.9998 4.98064Z"
                fill="#858585"
              />
</svg>